<mxfile host="app.diagrams.net" agent="Mozilla/5.0 (Windows NT 10.0; Win64; x64) AppleWebKit/537.36 (KHTML, like Gecko) Chrome/137.0.0.0 Safari/537.36 Edg/137.0.0.0" version="27.1.4">
  <diagram name="Page-1" id="Xufyj5xOPzsbBMslaGLk">
    <mxGraphModel dx="778" dy="514" grid="1" gridSize="10" guides="1" tooltips="1" connect="1" arrows="1" fold="1" page="1" pageScale="1" pageWidth="850" pageHeight="1100" math="0" shadow="0">
      <root>
        <mxCell id="0" />
        <mxCell id="1" parent="0" />
        <mxCell id="o0warCvsnycVxg6vD0QN-3" value="Người dùng" style="shape=umlActor;verticalLabelPosition=bottom;verticalAlign=top;html=1;outlineConnect=0;" vertex="1" parent="1">
          <mxGeometry x="290" y="740" width="30" height="60" as="geometry" />
        </mxCell>
        <mxCell id="o0warCvsnycVxg6vD0QN-4" value="Xem danh sách các báo cáo thất lạc hoặc đã tìm thấy thú cưng" style="ellipse;whiteSpace=wrap;html=1;" vertex="1" parent="1">
          <mxGeometry x="452.5" y="630" width="147.5" height="80" as="geometry" />
        </mxCell>
        <mxCell id="o0warCvsnycVxg6vD0QN-5" value="Xem thông tin liên lạc của người đăng báo cáo" style="ellipse;whiteSpace=wrap;html=1;" vertex="1" parent="1">
          <mxGeometry x="500" y="740" width="150" height="60" as="geometry" />
        </mxCell>
        <mxCell id="o0warCvsnycVxg6vD0QN-7" value="" style="endArrow=classic;html=1;rounded=0;" edge="1" parent="1" source="o0warCvsnycVxg6vD0QN-3" target="o0warCvsnycVxg6vD0QN-4">
          <mxGeometry width="50" height="50" relative="1" as="geometry">
            <mxPoint x="650" y="730" as="sourcePoint" />
            <mxPoint x="700" y="680" as="targetPoint" />
          </mxGeometry>
        </mxCell>
        <mxCell id="o0warCvsnycVxg6vD0QN-10" value="&lt;font face=&quot;Times New Roman, serif&quot;&gt;&lt;span style=&quot;font-size: 16px;&quot;&gt;&lt;b&gt;&amp;nbsp;UC Tìm kiếm thú cưng&lt;/b&gt;&lt;/span&gt;&lt;/font&gt;" style="shape=umlFrame;whiteSpace=wrap;html=1;pointerEvents=0;width=170;height=40;align=center;" vertex="1" parent="1">
          <mxGeometry x="380" y="570" width="560" height="500" as="geometry" />
        </mxCell>
        <mxCell id="o0warCvsnycVxg6vD0QN-15" value="Xem chi tiết báo cáo thất lạc hoặc đã tìm thấy thú cưng" style="ellipse;whiteSpace=wrap;html=1;" vertex="1" parent="1">
          <mxGeometry x="703" y="630" width="147.5" height="80" as="geometry" />
        </mxCell>
        <mxCell id="o0warCvsnycVxg6vD0QN-17" value="" style="endArrow=classic;html=1;rounded=0;" edge="1" parent="1" source="o0warCvsnycVxg6vD0QN-15" target="o0warCvsnycVxg6vD0QN-4">
          <mxGeometry width="50" height="50" relative="1" as="geometry">
            <mxPoint x="430" y="767" as="sourcePoint" />
            <mxPoint x="580" y="700" as="targetPoint" />
          </mxGeometry>
        </mxCell>
        <mxCell id="o0warCvsnycVxg6vD0QN-18" value="&amp;lt;&amp;lt;extend&amp;gt;&amp;gt;" style="edgeLabel;html=1;align=center;verticalAlign=middle;resizable=0;points=[];" vertex="1" connectable="0" parent="o0warCvsnycVxg6vD0QN-17">
          <mxGeometry x="-0.4409" y="-3" relative="1" as="geometry">
            <mxPoint x="-24" y="3" as="offset" />
          </mxGeometry>
        </mxCell>
        <mxCell id="o0warCvsnycVxg6vD0QN-19" value="" style="endArrow=classic;html=1;rounded=0;" edge="1" parent="1" source="o0warCvsnycVxg6vD0QN-5" target="o0warCvsnycVxg6vD0QN-15">
          <mxGeometry width="50" height="50" relative="1" as="geometry">
            <mxPoint x="610" y="670" as="sourcePoint" />
            <mxPoint x="713" y="670" as="targetPoint" />
          </mxGeometry>
        </mxCell>
        <mxCell id="o0warCvsnycVxg6vD0QN-20" value="&amp;lt;&amp;lt;extend&amp;gt;&amp;gt;" style="edgeLabel;html=1;align=center;verticalAlign=middle;resizable=0;points=[];" vertex="1" connectable="0" parent="o0warCvsnycVxg6vD0QN-19">
          <mxGeometry x="-0.4409" y="-3" relative="1" as="geometry">
            <mxPoint x="2" y="-3" as="offset" />
          </mxGeometry>
        </mxCell>
        <mxCell id="o0warCvsnycVxg6vD0QN-22" value="Sử dụng công cụ tìm kiếm" style="ellipse;whiteSpace=wrap;html=1;" vertex="1" parent="1">
          <mxGeometry x="461.25" y="870" width="130" height="60" as="geometry" />
        </mxCell>
        <mxCell id="o0warCvsnycVxg6vD0QN-23" value="" style="endArrow=classic;html=1;rounded=0;" edge="1" parent="1" source="o0warCvsnycVxg6vD0QN-3" target="o0warCvsnycVxg6vD0QN-22">
          <mxGeometry width="50" height="50" relative="1" as="geometry">
            <mxPoint x="360" y="807" as="sourcePoint" />
            <mxPoint x="510" y="740" as="targetPoint" />
          </mxGeometry>
        </mxCell>
        <mxCell id="o0warCvsnycVxg6vD0QN-24" value="Áp dụng bộ lọc" style="ellipse;whiteSpace=wrap;html=1;" vertex="1" parent="1">
          <mxGeometry x="660" y="920" width="130" height="60" as="geometry" />
        </mxCell>
        <mxCell id="o0warCvsnycVxg6vD0QN-25" value="" style="endArrow=classic;html=1;rounded=0;" edge="1" parent="1" source="o0warCvsnycVxg6vD0QN-24" target="o0warCvsnycVxg6vD0QN-22">
          <mxGeometry width="50" height="50" relative="1" as="geometry">
            <mxPoint x="610" y="670" as="sourcePoint" />
            <mxPoint x="713" y="670" as="targetPoint" />
          </mxGeometry>
        </mxCell>
        <mxCell id="o0warCvsnycVxg6vD0QN-26" value="&amp;lt;&amp;lt;extend&amp;gt;&amp;gt;" style="edgeLabel;html=1;align=center;verticalAlign=middle;resizable=0;points=[];" vertex="1" connectable="0" parent="o0warCvsnycVxg6vD0QN-25">
          <mxGeometry x="-0.4409" y="-3" relative="1" as="geometry">
            <mxPoint x="-15" y="3" as="offset" />
          </mxGeometry>
        </mxCell>
        <mxCell id="o0warCvsnycVxg6vD0QN-27" value="Lọc theo khu vực địa lí" style="ellipse;whiteSpace=wrap;html=1;" vertex="1" parent="1">
          <mxGeometry x="800" y="1000" width="130" height="60" as="geometry" />
        </mxCell>
        <mxCell id="o0warCvsnycVxg6vD0QN-28" value="Lọc theo ngày mất" style="ellipse;whiteSpace=wrap;html=1;" vertex="1" parent="1">
          <mxGeometry x="480" y="1000" width="130" height="60" as="geometry" />
        </mxCell>
        <mxCell id="o0warCvsnycVxg6vD0QN-29" value="" style="endArrow=classic;html=1;rounded=0;" edge="1" parent="1" source="o0warCvsnycVxg6vD0QN-28" target="o0warCvsnycVxg6vD0QN-24">
          <mxGeometry width="50" height="50" relative="1" as="geometry">
            <mxPoint x="580" y="910" as="sourcePoint" />
            <mxPoint x="647" y="929" as="targetPoint" />
          </mxGeometry>
        </mxCell>
        <mxCell id="o0warCvsnycVxg6vD0QN-30" value="&amp;lt;&amp;lt;extend&amp;gt;&amp;gt;" style="edgeLabel;html=1;align=center;verticalAlign=middle;resizable=0;points=[];" vertex="1" connectable="0" parent="o0warCvsnycVxg6vD0QN-29">
          <mxGeometry x="-0.4409" y="-3" relative="1" as="geometry">
            <mxPoint x="9" y="-4" as="offset" />
          </mxGeometry>
        </mxCell>
        <mxCell id="o0warCvsnycVxg6vD0QN-31" value="" style="endArrow=classic;html=1;rounded=0;" edge="1" parent="1" source="o0warCvsnycVxg6vD0QN-27" target="o0warCvsnycVxg6vD0QN-24">
          <mxGeometry width="50" height="50" relative="1" as="geometry">
            <mxPoint x="928" y="890" as="sourcePoint" />
            <mxPoint x="860" y="910" as="targetPoint" />
          </mxGeometry>
        </mxCell>
        <mxCell id="o0warCvsnycVxg6vD0QN-32" value="&amp;lt;&amp;lt;extend&amp;gt;&amp;gt;" style="edgeLabel;html=1;align=center;verticalAlign=middle;resizable=0;points=[];" vertex="1" connectable="0" parent="o0warCvsnycVxg6vD0QN-31">
          <mxGeometry x="-0.4409" y="-3" relative="1" as="geometry">
            <mxPoint x="-12" y="-5" as="offset" />
          </mxGeometry>
        </mxCell>
        <mxCell id="o0warCvsnycVxg6vD0QN-33" value="" style="endArrow=classic;html=1;rounded=0;" edge="1" parent="1" source="o0warCvsnycVxg6vD0QN-35" target="o0warCvsnycVxg6vD0QN-22">
          <mxGeometry width="50" height="50" relative="1" as="geometry">
            <mxPoint x="745" y="862" as="sourcePoint" />
            <mxPoint x="660" y="840" as="targetPoint" />
          </mxGeometry>
        </mxCell>
        <mxCell id="o0warCvsnycVxg6vD0QN-34" value="&amp;lt;&amp;lt;extend&amp;gt;&amp;gt;" style="edgeLabel;html=1;align=center;verticalAlign=middle;resizable=0;points=[];" vertex="1" connectable="0" parent="o0warCvsnycVxg6vD0QN-33">
          <mxGeometry x="-0.4409" y="-3" relative="1" as="geometry">
            <mxPoint x="-30" y="3" as="offset" />
          </mxGeometry>
        </mxCell>
        <mxCell id="o0warCvsnycVxg6vD0QN-35" value="Sắp xếp theo độ tương tự với hình ảnh thú cưng" style="ellipse;whiteSpace=wrap;html=1;" vertex="1" parent="1">
          <mxGeometry x="690" y="810" width="140" height="70" as="geometry" />
        </mxCell>
      </root>
    </mxGraphModel>
  </diagram>
</mxfile>
